<svg xmlns="http://www.w3.org/2000/svg" width="900" height="500" viewBox="-900 -600 1200 1200">

<line stroke="#000000" stroke-width="1" opacity="1" x1="-600" y1="-600" x2="600" y2="-600"></line>

<line stroke="#000000" stroke-width="1" opacity="1" x1="600" y1="-600" x2="600" y2="600"></line>

<line stroke="#000000" stroke-width="1" opacity="1" x1="-600" y1="-600" x2="-600" y2="600"></line>

<line stroke="#000000" stroke-width="1" opacity="1" x1="-600" y1="600" x2="600" y2="600"></line>


<line id="ObjLen1" stroke="#ff00ff" stroke-width="1" opacity="1" x1="150" y1="-150" x2="-150" y2="-150"></line>

<line id="ObjLen2" stroke="#ff00ff" stroke-width="1" opacity="1" x1="150" y1="150" x2="-150" y2="150"></line>

<line id="ObjLen3" stroke="#ff00ff" stroke-width="1" opacity="1" x1="-150" y1="-150" x2="-150" y2="150"></line>

<line id="ObjLen4" stroke="#ff00ff" stroke-width="1" opacity="1" x1="150" y1="-150" x2="150" y2="150"></line>


<line id="ObjLine_Len_Theta_T" stroke="#ff00ff" stroke-width="1" opacity="1" x1="150" y1="-450" x2="-150" y2="-450"></line>

<line id="ObjLine_Len_Theta_B" stroke="#ff00ff" stroke-width="1" opacity="1" x1="150" y1="450" x2="-150" y2="450"></line>

<line id="ObjLine_Len_Theta_L" stroke="#ff00ff" stroke-width="1" opacity="1" x1="-450" y1="-150" x2="-450" y2="150"></line>

<line id="ObjLine_Len_Theta_R" stroke="#ff00ff" stroke-width="1" opacity="1" x1="450" y1="-150" x2="450" y2="150"></line>


<line id="ObjLine_Len_Theta_TR" stroke="#FF0000" stroke-width="1" opacity="1" x1="150" y1="-150" x2="450" y2="-150"></line>

<line id="ObjLine_Len_Theta_TL" stroke="#FF0000" stroke-width="1" opacity="1" x1="-150" y1="-150" x2="-450" y2="-150"></line>

<line id="ObjLine_Len_Theta_BR" stroke="#FF0000" stroke-width="1" opacity="1" x1="150" y1="150" x2="450" y2="150"></line>

<line id="ObjLine_Len_Theta_BL" stroke="#FF0000" stroke-width="1" opacity="1" x1="-150" y1="150" x2="-450" y2="150"></line>


<line id="ObjLine_Wid_Theta_TR" stroke="#FF0000" stroke-width="1" opacity="1" x1="150" y1="-150" x2="150" y2="-450"></line>

<line id="ObjLine_Wid_Theta_TL" stroke="#FF0000" stroke-width="1" opacity="1" x1="-150" y1="-150" x2="-150" y2="-450"></line>

<line id="ObjLine_Wid_Theta_BR" stroke="#FF0000" stroke-width="1" opacity="1" x1="150" y1="150" x2="150" y2="450"></line>

<line id="ObjLine_Wid_Theta_BL" stroke="#FF0000" stroke-width="1" opacity="1" x1="-150" y1="150" x2="-150" y2="450"></line>


<line id="ObjLine_InnLen_Theta_TR" stroke="#ff00ff" stroke-width="1" opacity="1" x1="150" y1="-150" x2="450" y2="-300"></line>

<line id="ObjLine_InnLen_Theta_TL" stroke="#ff00ff" stroke-width="1" opacity="1" x1="-150" y1="-150" x2="-450" y2="-300"></line>

<line id="ObjLine_InnLen_Theta_BR" stroke="#ff00ff" stroke-width="1" opacity="1" x1="150" y1="150" x2="450" y2="300"></line>

<line id="ObjLine_InnLen_Theta_BL" stroke="#ff00ff" stroke-width="1" opacity="1" x1="-150" y1="150" x2="-450" y2="300"></line>


<line id="ObjLine_InnWid_Theta_TR" stroke="#ff00ff" stroke-width="1" opacity="1" x1="150" y1="-150" x2="300" y2="-450"></line>

<line id="ObjLine_InnWid_Theta_TL" stroke="#ff00ff" stroke-width="1" opacity="1" x1="-150" y1="-150" x2="-300" y2="-450"></line>

<line id="ObjLine_InnWid_Theta_BR" stroke="#ff00ff" stroke-width="1" opacity="1" x1="150" y1="150" x2="300" y2="450"></line>

<line id="ObjLine_InnWid_Theta_BL" stroke="#ff00ff" stroke-width="1" opacity="1" x1="-150" y1="150" x2="-300" y2="450"></line>


<line id="ObjLine_InnNet_Theta_TR" stroke="#ff00ff" stroke-width="1" opacity="1" x1="450" y1="-300" x2="300" y2="-450"></line>

<line id="ObjLine_InnNet_Theta_TL" stroke="#ff00ff" stroke-width="1" opacity="1" x1="-450" y1="-300" x2="-300" y2="-450"></line>

<line id="ObjLine_InnNet_Theta_BR" stroke="#ff00ff" stroke-width="1" opacity="1" x1="450" y1="300" x2="300" y2="450"></line>

<line id="ObjLine_InnNet_Theta_BL" stroke="#ff00ff" stroke-width="1" opacity="1" x1="-450" y1="300" x2="-300" y2="450"></line>


<line id="ObjLine_LenNet_Theta_TR" stroke="#ff00ff" stroke-width="1" opacity="1" x1="450" y1="-150" x2="450" y2="-300"></line>

<line id="ObjLine_LenNet_Theta_TL" stroke="#ff00ff" stroke-width="1" opacity="1" x1="-450" y1="-150" x2="-450" y2="-300"></line>

<line id="ObjLine_LenNet_Theta_BR" stroke="#ff00ff" stroke-width="1" opacity="1" x1="450" y1="150" x2="450" y2="300"></line>

<line id="ObjLine_LenNet_Theta_BL" stroke="#ff00ff" stroke-width="1" opacity="1" x1="-450" y1="150" x2="-450" y2="300"></line>


<line id="ObjLine_WidNet_Theta_TR" stroke="#ff00ff" stroke-width="1" opacity="1" x1="150" y1="-450" x2="300" y2="-450"></line>

<line id="ObjLine_WidNet_Theta_TL" stroke="#ff00ff" stroke-width="1" opacity="1" x1="-150" y1="-450" x2="-300" y2="-450"></line>

<line id="ObjLine_WidNet_Theta_BR" stroke="#ff00ff" stroke-width="1" opacity="1" x1="150" y1="450" x2="300" y2="450"></line>

<line id="ObjLine_WidNet_Theta_BL" stroke="#ff00ff" stroke-width="1" opacity="1" x1="-150" y1="450" x2="-300" y2="450"></line>


<line id="ObjLine_Len_Outer_TR" stroke="#FF0000" stroke-width="1" opacity="1" x1="450" y1="-150" x2="600" y2="-150"></line>

<line id="ObjLine_Len_Outer_TL" stroke="#FF0000" stroke-width="1" opacity="1" x1="-450" y1="-150" x2="-600" y2="-150"></line>

<line id="ObjLine_Len_Outer_BR" stroke="#FF0000" stroke-width="1" opacity="1" x1="450" y1="150" x2="600" y2="150"></line>

<line id="ObjLine_Len_Outer_BL" stroke="#FF0000" stroke-width="1" opacity="1" x1="-450" y1="150" x2="-600" y2="150"></line>


<line id="ObjLine_Wid_Outer_TR" stroke="#FF0000" stroke-width="1" opacity="1" x1="150" y1="-450" x2="150" y2="-600"></line>

<line id="ObjLine_Wid_Outer_TL" stroke="#FF0000" stroke-width="1" opacity="1" x1="-150" y1="-450" x2="-150" y2="-600"></line>

<line id="ObjLine_Wid_Outer_BR" stroke="#FF0000" stroke-width="1" opacity="1" x1="150" y1="450" x2="150" y2="600"></line>

<line id="ObjLine_Wid_Outer_BL" stroke="#FF0000" stroke-width="1" opacity="1" x1="-150" y1="450" x2="-150" y2="600"></line>


<line id="ObjLine_InnLen_Outer_TR" stroke="#0000FF" stroke-width="1" opacity="1" x1="450" y1="-300" x2="600" y2="-300"></line>

<line id="ObjLine_InnLen_Outer_TL" stroke="#0000FF" stroke-width="1" opacity="1" x1="-450" y1="-300" x2="-600" y2="-300"></line>

<line id="ObjLine_InnLen_Outer_BR" stroke="#0000FF" stroke-width="1" opacity="1" x1="450" y1="300" x2="600" y2="300"></line>

<line id="ObjLine_InnLen_Outer_BL" stroke="#0000FF" stroke-width="1" opacity="1" x1="-450" y1="300" x2="-600" y2="300"></line>


<line id="ObjLine_InnWid_Outer_TR" stroke="#0000FF" stroke-width="1" opacity="1" x1="300" y1="-450" x2="300" y2="-600"></line>

<line id="ObjLine_InnWid_Outer_TL" stroke="#0000FF" stroke-width="1" opacity="1" x1="-300" y1="-450" x2="-300" y2="-600"></line>

<line id="ObjLine_InnWid_Outer_BR" stroke="#0000FF" stroke-width="1" opacity="1" x1="300" y1="450" x2="300" y2="600"></line>

<line id="ObjLine_InnWid_Outer_BL" stroke="#0000FF" stroke-width="1" opacity="1" x1="-300" y1="450" x2="-300" y2="600"></line>

</svg>